<svg xmlns="http://www.w3.org/2000/svg" viewBox="0 0 64 64"><defs><linearGradient id="a" x2="1" y2="1"><stop stop-color="#bfeade"/><stop offset="1" stop-color="#34534f"/></linearGradient></defs><path d="M10 47l22-7 23 8-22 9z" fill="#19372f" stroke="#74cbbb"/><path d="M20 43V31l14-5 13 8v13l-13 5z" fill="url(#a)" stroke="#a4dbcd"/><path d="M17 27l24 5v6l-24-5zm0 8l24 5v6l-24-5z" fill="#355b57" stroke="#b1e3d6"/><path d="M40 31l8-2v7l-8 2m0 2l8-2v7l-8 2" fill="#83f0cf"/><path d="M26 30V16" stroke="#8dbaae" stroke-width="4"/><path d="M15 14l11-9 12 9-12 10z" fill="#223f3b" stroke="#c0ffe9" stroke-width="2"/><path d="M20 14h13m-7-5v10" stroke="#8ff0d2"/><path d="M49 19l8-4m-5 10l8-2" stroke="#b6ffe5" stroke-width="2"/><circle cx="53" cy="12" r="2" fill="#e0fff3"/></svg>
